<?xml version="1.0" standalone="no"?>
<svg viewBox="0 0 200 200" xmlns="http://www.w3.org/2000/svg">
  <path fill="#0F62FE" d="M38.4,-69.7C48.4,-60.7,54.4,-47.7,63.1,-35.5C71.8,-23.2,83.3,-11.6,84.2,0.5C85.1,12.6,75.3,25.3,65.5,35.6C55.7,46,45.8,54.1,34.9,61.1C23.9,68.1,12,74.1,-0.2,74.4C-12.4,74.8,-24.7,69.5,-35.9,62.6C-47,55.7,-57,47.2,-63.1,36.5C-69.1,25.8,-71.4,12.9,-73,-0.9C-74.6,-14.8,-75.7,-29.5,-69.2,-39.6C-62.8,-49.7,-48.9,-55.1,-36.1,-62.5C-23.3,-70,-11.6,-79.4,1.3,-81.6C14.2,-83.7,28.3,-78.7,38.4,-69.7Z" transform="translate(100 100)" />
</svg>
