<?xml version="1.0" standalone="no"?>
<svg viewBox="0 0 200 200" xmlns="http://www.w3.org/2000/svg">
  <path fill="#0F62FE" d="M45,-69C57.5,-70.8,66,-56.9,73.6,-42.8C81.2,-28.7,87.8,-14.3,87,-0.5C86.2,13.4,78,26.9,69.1,38.8C60.3,50.7,50.7,61,39.1,62.6C27.5,64.1,13.7,56.9,3.7,50.5C-6.3,44,-12.5,38.3,-23.2,36.2C-33.9,34,-48.9,35.5,-50.7,30C-52.6,24.6,-41.2,12.3,-39.8,0.8C-38.3,-10.6,-46.8,-21.3,-46.5,-29.3C-46.1,-37.3,-36.9,-42.7,-27.7,-42.7C-18.5,-42.8,-9.2,-37.5,3.5,-43.6C16.3,-49.7,32.6,-67.2,45,-69Z" transform="translate(100 100)" />
</svg>
