<?xml version="1.0" standalone="no"?>
<svg viewBox="0 0 200 200" xmlns="http://www.w3.org/2000/svg">
  <path fill="#0F62FE" d="M37.4,-56.4C49.4,-57.8,60.7,-49.7,65.1,-38.7C69.4,-27.7,66.8,-13.9,62.5,-2.5C58.2,8.9,52.2,17.8,43.9,21.9C35.5,25.9,24.8,25.1,17,30.7C9.3,36.3,4.7,48.4,-4.2,55.7C-13.1,63,-26.1,65.4,-33.9,59.8C-41.6,54.2,-44,40.5,-50.6,29.2C-57.2,17.9,-67.9,8.9,-67.5,0.3C-67,-8.4,-55.4,-16.9,-49.5,-29.3C-43.6,-41.8,-43.4,-58.3,-36.1,-59.6C-28.8,-60.9,-14.4,-47,-0.9,-45.5C12.7,-44,25.4,-55,37.4,-56.4Z" transform="translate(100 100)" />
</svg>
