<?xml version="1.0" standalone="no"?>
<svg viewBox="0 0 200 200" xmlns="http://www.w3.org/2000/svg">
  <path fill="#0F62FE" d="M32.8,-58.3C42.6,-51.1,50.7,-42.5,60.6,-32.6C70.6,-22.7,82.3,-11.3,82.9,0.4C83.6,12.1,73.3,24.2,65.7,38.3C58.2,52.3,53.4,68.3,42.9,73.6C32.4,78.9,16.2,73.5,1.4,71C-13.3,68.5,-26.7,68.9,-39.2,64.8C-51.7,60.6,-63.4,52,-67.8,40.4C-72.1,28.9,-69.2,14.4,-68.6,0.4C-68,-13.7,-69.7,-27.5,-64.1,-36.9C-58.5,-46.4,-45.6,-51.6,-33.7,-57.6C-21.8,-63.6,-10.9,-70.4,0.3,-70.9C11.5,-71.3,23,-65.5,32.8,-58.3Z" transform="translate(100 100)" />
</svg>
