<?xml version="1.0" standalone="no"?>
<svg viewBox="0 0 200 200" xmlns="http://www.w3.org/2000/svg">
  <path fill="#0F62FE" d="M30.8,-44.2C44.3,-45.7,62.5,-46.1,67.1,-38.6C71.7,-31.1,62.7,-15.5,53.4,-5.3C44.2,4.8,34.7,9.7,31,18.8C27.3,28,29.5,41.4,25.3,51.9C21.1,62.3,10.6,69.7,2.1,66C-6.3,62.4,-12.6,47.6,-21.8,40C-30.9,32.4,-42.9,32,-47.4,26.6C-51.9,21.1,-48.9,10.6,-53.2,-2.5C-57.5,-15.5,-69.2,-31.1,-69.6,-45.1C-70,-59.1,-59.3,-71.6,-45.8,-70.2C-32.4,-68.7,-16.2,-53.3,-3.7,-46.8C8.7,-40.3,17.4,-42.8,30.8,-44.2Z" transform="translate(100 100)" />
</svg>
