<?xml version="1.0" standalone="no"?>
<svg viewBox="0 0 200 200" xmlns="http://www.w3.org/2000/svg">
  <path fill="#0F62FE" d="M38.4,-62.4C52.6,-58.2,69.1,-53.8,78.6,-43.4C88.2,-32.9,90.7,-16.5,88.1,-1.5C85.5,13.4,77.6,26.8,67.8,36.8C58,46.8,46.3,53.4,34.7,57.8C23.1,62.1,11.5,64.2,-0.5,65.1C-12.6,66.1,-25.3,65.9,-36.4,61.2C-47.5,56.6,-57.2,47.6,-64.8,36.7C-72.5,25.7,-78.2,12.9,-77.9,0.2C-77.7,-12.6,-71.4,-25.1,-64.5,-37.3C-57.6,-49.6,-50,-61.5,-39.1,-67.7C-28.3,-73.8,-14.1,-74.2,-1,-72.4C12.1,-70.6,24.1,-66.6,38.4,-62.4Z" transform="translate(100 100)" />
</svg>
