<?xml version="1.0" standalone="no"?>
<svg viewBox="0 0 200 200" xmlns="http://www.w3.org/2000/svg">
  <path fill="#0F62FE" d="M39.4,-68.5C51.3,-61.4,61.4,-51.3,67.5,-39.4C73.6,-27.5,75.8,-13.7,77.7,1.1C79.6,15.9,81.2,31.8,76.1,45.6C71,59.4,59.4,71,45.6,76.1C31.8,81.2,15.9,79.9,2.4,75.8C-11.1,71.7,-22.3,64.8,-34.4,58.7C-46.5,52.6,-59.5,47.2,-70.4,37.6C-81.2,27.9,-89.9,14,-90,0C-90.1,-14,-81.5,-28.1,-72,-40.1C-62.5,-52.1,-52.1,-62.2,-39.9,-69.1C-27.8,-75.9,-13.9,-79.7,-0.1,-79.6C13.8,-79.5,27.5,-75.5,39.4,-68.5Z" transform="translate(100 100)" />
</svg>
