<?xml version="1.0" standalone="no"?>
<svg viewBox="0 0 200 200" xmlns="http://www.w3.org/2000/svg">
  <path fill="#0F62FE" d="M33.4,-61.5C38.5,-55,34.5,-36.3,32.1,-24C29.8,-11.7,29.2,-5.9,33.5,2.5C37.8,10.8,47.1,21.7,45.2,26.6C43.2,31.6,30.2,30.6,20.8,34.6C11.4,38.5,5.7,47.3,-2.8,52.2C-11.4,57.1,-22.7,58.1,-34.7,55.6C-46.6,53.2,-59.1,47.3,-66.2,37.4C-73.3,27.6,-75,13.8,-68.2,4C-61.3,-5.9,-45.9,-11.7,-41.4,-26C-36.8,-40.3,-43.2,-63,-38.1,-69.5C-33,-76,-16.5,-66.3,-1.2,-64.3C14.2,-62.3,28.4,-68,33.4,-61.5Z" transform="translate(100 100)" />
</svg>
