<?xml version="1.0" standalone="no"?>
<svg viewBox="0 0 200 200" xmlns="http://www.w3.org/2000/svg">
  <path fill="#0F62FE" d="M46.5,-75.1C60.1,-72.6,71,-59.9,78,-45.7C85.1,-31.5,88.3,-15.7,86,-1.3C83.7,13.1,75.9,26.2,66.6,36.5C57.3,46.9,46.5,54.4,35.2,63.7C23.8,72.9,11.9,83.9,-1.5,86.5C-15,89.2,-30,83.6,-40,73.6C-50,63.5,-55.1,49.1,-58.9,36.1C-62.7,23.1,-65.2,11.6,-64.5,0.5C-63.7,-10.7,-59.5,-21.3,-55.9,-34.7C-52.3,-48,-49.3,-64.1,-40.1,-69.2C-30.9,-74.3,-15.4,-68.4,0.5,-69.3C16.4,-70.1,32.8,-77.7,46.5,-75.1Z" transform="translate(100 100)" />
</svg>
