<?xml version="1.0" standalone="no"?>
<svg viewBox="0 0 200 200" xmlns="http://www.w3.org/2000/svg">
  <path fill="#0F62FE" d="M26.6,-48.4C35.2,-41.2,43.2,-35.4,52.9,-27.6C62.5,-19.7,73.7,-9.9,76.6,1.7C79.6,13.3,74.3,26.6,66,36.7C57.7,46.8,46.4,53.8,34.9,53.1C23.4,52.4,11.7,44.1,0.6,43C-10.5,42,-20.9,48.2,-30.3,47.6C-39.6,47.1,-47.9,39.7,-53.9,30.7C-60,21.6,-64,10.8,-59.4,2.7C-54.7,-5.4,-41.5,-10.9,-35.4,-19.9C-29.3,-29,-30.3,-41.7,-25.6,-51C-20.9,-60.4,-10.5,-66.5,-0.7,-65.2C9,-64,18.1,-55.5,26.6,-48.4Z" transform="translate(100 100)" />
</svg>
