<?xml version="1.0" standalone="no"?>
<svg viewBox="0 0 200 200" xmlns="http://www.w3.org/2000/svg">
  <path fill="#0F62FE" d="M20.5,-35.6C28.2,-31,37.2,-28.9,43.1,-23.3C48.9,-17.8,51.5,-8.9,53.9,1.4C56.4,11.7,58.6,23.4,56.6,35.7C54.7,47.9,48.5,60.7,38.4,62.5C28.3,64.3,14.1,55.1,4.6,47.2C-5,39.3,-10,32.6,-23.7,32.9C-37.4,33.1,-59.7,40.2,-73.4,35.9C-87,31.6,-92,15.8,-83.3,5C-74.7,-5.8,-52.3,-11.5,-44,-25.1C-35.6,-38.7,-41.4,-60.1,-36.4,-66.3C-31.4,-72.4,-15.7,-63.3,-4.6,-55.3C6.4,-47.2,12.8,-40.2,20.5,-35.6Z" transform="translate(100 100)" />
</svg>
