<?xml version="1.0" standalone="no"?>
<!DOCTYPE svg PUBLIC "-//W3C//DTD SVG 20010904//EN"
 "http://www.w3.org/TR/2001/REC-SVG-20010904/DTD/svg10.dtd">
<svg version="1.0" xmlns="http://www.w3.org/2000/svg"
 width="1024.000000pt" height="1024.000000pt" viewBox="0 0 1024.000000 1024.000000"
 preserveAspectRatio="xMidYMid meet">

<g transform="translate(0.000000,1024.000000) scale(0.100000,-0.100000)" stroke="none">
<path d="M1500 9599 c-85 -34 -134 -110 -135 -209 0 -87 34 -148 108 -190 93
-53 200 -38 276 40 46 48 66 110 58 182 -8 68 -45 121 -110 158 -42 24 -63 30
-112 29 -33 0 -71 -5 -85 -10z"/>
<path d="M7986 9489 c-103 -81 -53 -249 74 -249 107 0 173 106 125 200 -35 69
-141 95 -199 49z"/>
<path d="M9560 9439 c-41 -16 -80 -60 -91 -103 -14 -53 10 -117 55 -146 45
-27 118 -27 163 1 93 58 82 193 -20 239 -47 22 -70 24 -107 9z"/>
<path d="M4475 9033 c-251 -19 -526 -86 -776 -188 -491 -200 -842 -482 -1167
-936 -210 -294 -364 -643 -468 -1062 -32 -130 -74 -375 -74 -435 0 -25 -7 -29
-83 -55 -180 -62 -426 -198 -577 -318 -390 -309 -669 -807 -730 -1303 -20
-155 -8 -440 24 -599 87 -424 299 -807 617 -1112 112 -107 182 -162 313 -245
301 -189 624 -304 976 -345 107 -13 510 -15 2840 -15 1837 0 2752 4 2830 11
395 36 796 172 1110 377 159 103 340 264 470 417 210 247 377 599 440 923 20
105 21 136 17 415 -3 270 -6 311 -26 387 -88 343 -226 620 -420 845 -130 150
-346 335 -486 415 -45 26 -66 48 -110 114 -219 329 -479 562 -817 732 -428
215 -870 257 -1333 129 -49 -14 -95 -25 -101 -25 -6 0 -19 39 -28 88 -43 220
-178 547 -310 752 -113 175 -267 347 -440 493 -376 315 -820 497 -1309 537
-119 9 -287 11 -382 3z m220 -481 c-6 -4 -32 -14 -58 -20 -27 -7 -97 -34 -156
-60 -277 -124 -516 -338 -676 -607 -54 -90 -110 -217 -121 -275 -4 -16 -10
-30 -13 -30 -4 0 -54 7 -112 16 -255 39 -536 -21 -722 -153 -27 -19 -51 -32
-54 -30 -6 6 43 103 109 214 179 304 474 575 809 741 292 145 552 205 904 211
54 0 95 -3 90 -7z m610 -255 c133 -29 304 -101 404 -170 95 -65 225 -183 298
-271 181 -217 284 -484 300 -773 l6 -123 -960 0 -961 0 -13 32 c-50 121 -231
322 -367 408 -42 26 -71 52 -71 62 -1 31 56 174 98 246 180 308 494 532 837
597 98 18 328 14 429 -8z m-1681 -1022 c255 -74 448 -252 541 -499 36 -95 57
-242 49 -338 l-7 -78 -810 0 -809 0 4 153 c4 138 7 160 35 240 84 239 262 420
502 507 153 56 334 62 495 15z m4137 -461 c253 -42 512 -170 722 -356 53 -47
151 -156 231 -258 17 -22 106 -157 106 -161 0 -2 -78 -5 -173 -5 -157 -1 -182
-4 -288 -32 -135 -35 -275 -88 -374 -142 -160 -88 -330 -240 -437 -392 -54
-77 -64 -86 -78 -75 -10 6 -39 29 -66 49 -116 89 -345 176 -534 204 -151 22
-395 15 -520 -16 -374 -91 -666 -283 -845 -555 l-41 -63 -45 30 c-65 45 -180
96 -267 120 -100 26 -345 36 -475 18 -155 -21 -294 -72 -412 -152 -46 -30 -62
-35 -160 -46 -147 -15 -251 -43 -363 -97 -115 -55 -165 -90 -253 -173 -211
-198 -319 -444 -319 -725 l0 -97 -171 0 -172 0 7 78 c23 265 -91 554 -294 746
-130 122 -272 200 -448 243 -100 25 -352 24 -452 -1 -231 -59 -441 -199 -558
-373 -54 -80 -64 -86 -56 -31 28 205 83 317 215 444 142 134 310 214 524 249
284 47 622 -30 870 -198 137 -94 284 -267 321 -380 28 -86 54 -125 99 -147 57
-28 88 -25 129 10 53 47 71 104 57 182 -24 141 -158 344 -317 481 -136 118
-261 191 -439 258 l-89 34 444 5 c494 6 486 4 529 73 47 76 16 172 -69 215
-44 22 -48 22 -480 22 l-437 0 -11 -51 c-14 -59 -16 -229 -3 -229 5 0 11 -6
14 -13 4 -10 -29 -7 -131 15 -117 25 -161 29 -297 30 -112 1 -187 -4 -250 -16
-100 -19 -229 -58 -289 -88 l-39 -20 21 29 c34 47 144 166 197 214 209 188
423 309 659 371 80 22 90 22 1461 27 l1380 6 81 27 c226 77 397 284 422 513
l7 60 653 2 c399 1 658 5 665 11 18 14 192 78 267 97 180 47 397 58 571 29z
m-2456 -176 c-32 -153 -147 -257 -293 -264 -37 -2 -167 -5 -289 -8 l-223 -4 0
154 0 154 406 0 406 0 -7 -32z m3590 -903 c212 -34 399 -129 550 -279 184
-183 296 -405 351 -694 21 -114 15 -372 -13 -477 l-18 -70 -190 -6 c-104 -3
-517 -7 -917 -8 l-726 -2 -8 23 c-14 45 -8 260 10 328 55 209 225 419 412 510
217 107 460 108 673 4 59 -29 81 -35 113 -31 141 19 170 187 48 276 -44 32
-161 80 -263 108 -77 21 -332 24 -422 5 -297 -64 -517 -213 -689 -466 -108
-159 -159 -308 -182 -529 l-6 -69 -24 42 c-60 105 -217 271 -324 341 -135 89
-312 159 -458 180 -133 19 -356 7 -471 -25 -179 -50 -347 -150 -481 -285 -143
-144 -220 -269 -278 -452 -46 -144 -57 -218 -57 -396 l0 -163 -207 0 -206 0
19 49 c54 143 74 373 45 523 -54 281 -234 543 -456 664 -48 26 -50 29 -28 37
54 20 188 28 278 18 169 -21 255 -59 444 -196 37 -27 58 -35 91 -35 63 0 103
32 152 124 273 507 920 724 1455 490 119 -52 181 -95 280 -192 85 -82 90 -85
141 -90 49 -4 57 -1 90 27 23 21 42 50 53 84 50 155 181 315 359 443 122 86
336 171 490 193 97 14 273 12 370 -4z m-4531 -1055 c316 -81 536 -364 536
-692 l0 -98 -721 0 -722 0 5 123 c10 211 58 319 212 472 112 112 191 159 327
194 102 27 260 28 363 1z m-2330 -10 c163 -42 318 -151 407 -287 68 -105 90
-176 96 -310 3 -61 2 -128 -1 -147 l-7 -36 -658 0 -659 0 -6 31 c-11 58 -6
214 9 274 51 197 217 381 405 451 133 49 283 58 414 24z m4814 -51 c87 -22
199 -72 269 -121 59 -40 173 -155 214 -216 112 -166 169 -388 153 -599 l-7
-93 -827 0 -827 0 -7 53 c-33 280 46 552 213 730 143 152 288 230 491 266 76
14 235 4 328 -20z m2822 -722 c0 -21 -134 -218 -172 -253 l-33 -32 -850 -6
-850 -7 2 153 c1 84 3 154 3 156 0 1 428 2 950 2 789 0 950 -2 950 -13z
m-4915 -347 c-55 -109 -190 -206 -319 -229 -87 -16 -2799 -15 -2829 0 -62 33
-257 237 -257 270 0 5 651 9 1715 9 l1715 0 -25 -50z m4433 -273 c-94 -79
-231 -156 -358 -201 -165 -60 -151 -59 -860 -65 -637 -6 -656 -7 -690 -27 -44
-25 -80 -87 -80 -137 0 -42 12 -70 43 -104 l20 -23 -369 0 c-267 1 -364 4
-351 11 23 13 56 84 57 118 0 46 -39 110 -84 136 l-43 25 -685 0 -685 0 -44
-23 c-90 -47 -116 -172 -49 -239 l29 -29 -1117 4 c-993 3 -1125 5 -1190 20
-101 22 -228 61 -342 103 -109 41 -340 153 -340 165 0 5 552 10 1228 11 l1227
3 80 28 c108 38 209 103 292 187 l68 70 2138 -2 2138 -3 -33 -28z"/>
<path d="M5912 6364 c-150 -40 -262 -132 -360 -298 -79 -131 -133 -188 -220
-229 l-67 -32 -705 -5 c-498 -4 -712 -8 -730 -16 -54 -25 -90 -83 -90 -146 0
-56 29 -102 79 -128 39 -20 55 -20 744 -20 672 0 707 1 783 20 182 46 281 124
409 320 85 130 126 174 198 212 40 22 55 23 332 28 182 4 299 10 315 17 14 6
39 25 55 43 27 28 30 38 30 97 0 64 -1 66 -42 103 -24 21 -57 40 -74 44 -17 3
-160 6 -318 5 -214 0 -299 -4 -339 -15z"/>
<path d="M7090 6359 c-53 -31 -73 -65 -78 -131 -4 -50 -1 -62 21 -92 50 -65
56 -66 448 -66 336 0 355 1 395 21 62 29 88 75 82 145 -4 43 -11 61 -34 85
-54 58 -60 59 -446 59 -338 0 -355 -1 -388 -21z"/>
<path d="M3480 5299 c-86 -34 -126 -141 -81 -215 26 -42 101 -78 148 -71 44 7
96 42 117 78 22 37 20 107 -4 143 -40 61 -118 89 -180 65z"/>
<path d="M2371 8874 c-58 -30 -94 -75 -116 -149 -38 -125 62 -265 202 -282 93
-11 212 69 243 162 25 75 -9 193 -69 243 -70 57 -175 68 -260 26z"/>
<path d="M6715 8826 c-65 -30 -115 -110 -115 -184 0 -54 38 -122 88 -157 84
-58 205 -34 266 53 86 122 1 290 -151 299 -35 2 -70 -2 -88 -11z"/>
<path d="M9155 8604 c-125 -44 -199 -188 -162 -315 32 -110 137 -189 249 -189
197 0 326 210 233 378 -65 118 -197 170 -320 126z"/>
<path d="M975 8508 c-42 -15 -93 -65 -106 -106 -23 -71 9 -154 74 -190 29 -15
75 -17 441 -20 475 -3 533 2 583 50 82 79 56 210 -51 259 -38 17 -73 19 -476
18 -275 0 -446 -4 -465 -11z"/>
<path d="M7945 8484 c-99 -51 -132 -150 -82 -244 61 -116 236 -119 302 -5 57
97 19 205 -87 250 -47 19 -95 19 -133 -1z"/>
<path d="M7125 8395 c-22 -8 -57 -32 -77 -56 -59 -65 -74 -149 -39 -224 69
-149 268 -169 364 -37 41 57 50 148 19 208 -54 104 -159 147 -267 109z"/>
<path d="M8974 7829 c-41 -12 -90 -68 -103 -117 -19 -70 15 -142 82 -173 39
-17 72 -19 497 -19 298 0 469 4 495 11 133 36 156 198 42 283 -28 21 -39 21
-505 23 -269 1 -491 -3 -508 -8z"/>
<path d="M1495 7555 c-5 -2 -22 -6 -37 -9 -39 -9 -98 -64 -119 -111 -85 -185
124 -363 303 -258 43 25 89 101 95 157 7 57 -31 143 -76 176 -48 33 -132 56
-166 45z"/>
<path d="M9445 7021 c-139 -65 -178 -238 -77 -344 94 -99 239 -94 335 12 60
67 70 147 27 231 -51 100 -185 147 -285 101z"/>
<path d="M951 6893 c-104 -51 -114 -205 -18 -277 27 -20 42 -21 298 -24 255
-3 273 -2 312 17 94 45 118 161 50 241 -49 59 -57 60 -345 60 -224 0 -268 -3
-297 -17z"/>
</g>
</svg>
